<svg width="339" height="249" viewBox="0 0 339 249" fill="none" xmlns="http://www.w3.org/2000/svg">
<g clip-path="url(#clip0_13_217)">
<path d="M67.0068 129.682L62.5407 82.3424L49.2235 82.8016L59.7655 129.55C58.9054 130.272 58.2862 131.239 57.9907 132.322C57.6953 133.406 57.7376 134.553 58.112 135.612C58.4865 136.67 59.1753 137.589 60.0862 138.246C60.9971 138.903 62.0868 139.265 63.2095 139.286C64.3322 139.306 65.4344 138.984 66.3686 138.361C67.3029 137.738 68.0248 136.845 68.4377 135.801C68.8506 134.756 68.9348 133.611 68.6791 132.518C68.4234 131.424 67.84 130.435 67.0068 129.682Z" fill="#FFB8B8"/>
<path d="M320.181 235.196C320.058 239.781 319.29 244.326 317.899 248.696C317.867 248.798 317.834 248.898 317.801 248.999H309.286C309.295 248.907 309.304 248.807 309.313 248.696C309.88 242.17 313.154 202.449 309.24 195.656C309.583 196.208 320.839 214.459 320.181 235.196Z" fill="#4DA1A9"/>
<path d="M318.814 248.367C318.665 248.579 318.51 248.791 318.351 249H304.994C305.095 248.819 305.212 248.607 305.348 248.367C307.555 244.384 314.087 232.479 320.15 220.133C326.666 206.867 332.644 193.099 332.14 188.115C332.295 189.239 336.802 223.501 318.814 248.367Z" fill="#4DA1A9"/>
<path d="M25.4188 228.242C25.6018 235.07 26.7457 241.838 28.817 248.347C28.8629 248.498 28.9139 248.647 28.9635 248.798H41.6433C41.6299 248.663 41.6162 248.511 41.6028 248.347C40.7574 238.628 35.8829 179.474 41.7112 169.359C41.201 170.179 24.4338 197.359 25.4188 228.242Z" fill="#4DA1A9"/>
<path d="M26.3703 248.347C26.4764 248.498 26.5866 248.649 26.6996 248.798H36.2117C36.1396 248.669 36.056 248.518 35.9591 248.347C34.3877 245.511 29.7363 237.032 25.4188 228.241C20.7808 218.795 16.522 208.99 16.8807 205.442C16.77 206.242 13.5592 230.64 26.3703 248.347Z" fill="#4DA1A9"/>
<path d="M301.054 199.372H168.678C168.028 199.371 167.405 199.113 166.946 198.653C166.486 198.194 166.228 197.571 166.227 196.921V164.085C166.228 163.435 166.486 162.812 166.946 162.353C167.405 161.893 168.028 161.635 168.678 161.634H301.054C301.704 161.635 302.327 161.893 302.786 162.353C303.246 162.812 303.504 163.435 303.505 164.085V196.92C303.504 197.57 303.246 198.193 302.786 198.653C302.327 199.112 301.704 199.371 301.054 199.372ZM168.678 162.613C168.288 162.613 167.915 162.769 167.64 163.044C167.364 163.319 167.209 163.693 167.208 164.082V196.917C167.209 197.307 167.364 197.68 167.64 197.955C167.915 198.231 168.288 198.386 168.678 198.386H301.054C301.443 198.386 301.817 198.231 302.092 197.955C302.368 197.68 302.523 197.307 302.523 196.917V164.085C302.523 163.696 302.368 163.322 302.092 163.047C301.817 162.772 301.443 162.617 301.054 162.616L168.678 162.613Z" fill="#3F3D56"/>
<path d="M156.183 239.003C161.698 239.003 166.168 234.532 166.168 229.018C166.168 223.503 161.698 219.032 156.183 219.032C150.668 219.032 146.197 223.503 146.197 229.018C146.197 234.532 150.668 239.003 156.183 239.003Z" fill="#E6E6E6"/>
<path d="M179.245 222.706C178.804 222.706 178.381 222.881 178.069 223.193C177.757 223.505 177.581 223.928 177.581 224.37C177.581 224.811 177.757 225.234 178.069 225.546C178.381 225.858 178.804 226.034 179.245 226.034H257.705C257.923 226.034 258.14 225.992 258.342 225.908C258.544 225.825 258.728 225.703 258.882 225.549C259.037 225.394 259.16 225.211 259.244 225.01C259.328 224.808 259.372 224.592 259.372 224.373C259.373 224.154 259.33 223.938 259.247 223.736C259.164 223.534 259.041 223.35 258.887 223.195C258.733 223.04 258.55 222.918 258.348 222.834C258.146 222.749 257.93 222.706 257.711 222.706H179.245Z" fill="#E6E6E6"/>
<path d="M179.245 232.691C178.804 232.69 178.38 232.865 178.068 233.176C177.755 233.488 177.579 233.91 177.578 234.352C177.577 234.793 177.752 235.217 178.063 235.529C178.374 235.842 178.797 236.018 179.239 236.019H213.007C213.448 236.019 213.871 235.844 214.183 235.532C214.496 235.22 214.671 234.796 214.671 234.355C214.671 233.914 214.496 233.491 214.183 233.178C213.871 232.866 213.448 232.691 213.007 232.691H179.245Z" fill="#E6E6E6"/>
<path d="M189.246 190.329C194.761 190.329 199.232 185.858 199.232 180.344C199.232 174.829 194.761 170.359 189.246 170.359C183.731 170.359 179.26 174.829 179.26 180.344C179.26 185.858 183.731 190.329 189.246 190.329Z" fill="#E6E6E6"/>
<path d="M212.309 174.032C211.867 174.032 211.444 174.207 211.132 174.519C210.82 174.831 210.645 175.254 210.645 175.696C210.645 176.137 210.82 176.56 211.132 176.872C211.444 177.184 211.867 177.36 212.309 177.36H290.768C291.209 177.36 291.633 177.184 291.945 176.872C292.257 176.56 292.432 176.137 292.432 175.696C292.432 175.254 292.257 174.831 291.945 174.519C291.633 174.207 291.209 174.032 290.768 174.032H212.309Z" fill="#E6E6E6"/>
<path d="M212.309 184.017C211.867 184.017 211.444 184.192 211.132 184.504C210.82 184.817 210.645 185.24 210.645 185.681C210.645 186.123 210.82 186.546 211.132 186.858C211.444 187.17 211.867 187.345 212.309 187.345H246.07C246.511 187.345 246.935 187.17 247.247 186.858C247.559 186.546 247.734 186.123 247.734 185.681C247.734 185.24 247.559 184.817 247.247 184.504C246.935 184.192 246.511 184.017 246.07 184.017H212.309Z" fill="#E6E6E6"/>
<path d="M275.338 118.096H142.962C142.312 118.095 141.689 117.836 141.23 117.377C140.77 116.917 140.512 116.294 140.511 115.645V2.45114C140.512 1.80132 140.77 1.17836 141.23 0.718861C141.689 0.259367 142.312 0.000850475 142.962 0H275.338C275.988 0.000850475 276.611 0.259367 277.07 0.718861C277.53 1.17836 277.788 1.80132 277.789 2.45114V115.644C277.789 116.294 277.53 116.917 277.07 117.377C276.611 117.836 275.988 118.095 275.338 118.095V118.096ZM142.962 0.978527C142.573 0.979376 142.199 1.13446 141.924 1.40984C141.649 1.68522 141.494 2.05848 141.493 2.44793V115.644C141.494 116.034 141.649 116.407 141.924 116.682C142.199 116.958 142.573 117.113 142.962 117.114H275.338C275.728 117.113 276.101 116.958 276.376 116.682C276.652 116.407 276.807 116.034 276.807 115.644V2.45114C276.807 2.06169 276.652 1.68844 276.376 1.41306C276.101 1.13768 275.727 0.982592 275.338 0.981743L142.962 0.978527Z" fill="#3F3D56"/>
<path d="M163.53 29.8899C169.045 29.8899 173.516 25.4194 173.516 19.9048C173.516 14.3903 169.045 9.9198 163.53 9.9198C158.015 9.9198 153.545 14.3903 153.545 19.9048C153.545 25.4194 158.015 29.8899 163.53 29.8899Z" fill="#2E5077"/>
<path d="M186.593 13.248C186.151 13.248 185.728 13.4234 185.416 13.7355C185.104 14.0475 184.929 14.4708 184.929 14.9121C184.929 15.3535 185.104 15.7768 185.416 16.0888C185.728 16.4009 186.151 16.5762 186.593 16.5762H265.052C265.493 16.5762 265.917 16.4009 266.229 16.0888C266.541 15.7768 266.716 15.3535 266.716 14.9121C266.716 14.4708 266.541 14.0475 266.229 13.7355C265.917 13.4234 265.493 13.248 265.052 13.248H186.593Z" fill="#CCCCCC"/>
<path d="M186.593 23.2335C186.151 23.2335 185.728 23.4088 185.416 23.7209C185.104 24.033 184.929 24.4563 184.929 24.8976C184.929 25.339 185.104 25.7622 185.416 26.0743C185.728 26.3864 186.151 26.5617 186.593 26.5617H220.354C220.795 26.5617 221.219 26.3864 221.531 26.0743C221.843 25.7622 222.018 25.339 222.018 24.8976C222.018 24.4563 221.843 24.033 221.531 23.7209C221.219 23.4088 220.795 23.2335 220.354 23.2335H186.593Z" fill="#CCCCCC"/>
<path d="M107.084 239.385H96.9812L91.0114 155.353L90.7818 176.705L68.7396 235.481L60.0145 228.594L74.4797 170.047L67.5915 137.445H112.594L107.084 239.385Z" fill="#2F2E41"/>
<path d="M91.0114 33.6685C97.6054 33.6685 102.951 28.3233 102.951 21.7296C102.951 15.136 97.6054 9.79077 91.0114 9.79077C84.4173 9.79077 79.0718 15.136 79.0718 21.7296C79.0718 28.3233 84.4173 33.6685 91.0114 33.6685Z" fill="#FFB8B8"/>
<path d="M113.972 143.874C94.466 138.869 76.1636 135.496 64.8367 141.578C66.8205 120.726 64.5258 94.1074 57.7189 66.287C55.5082 57.2507 57.0076 49.1083 65.0663 44.4595L75.8578 38.2605L92.3894 38.7197L101.015 43.4916C105.233 45.599 108.647 49.0253 110.741 53.2501C112.834 57.4749 113.491 62.2674 112.612 66.8996C107.977 91.2856 110.482 117.605 113.972 143.874Z" fill="#3F3D56"/>
<path d="M69.4288 85.5568L47.8458 84.1792C49.5321 62.9482 54.3308 51.3423 61.6222 47.4442L69.4288 56.628V85.5568Z" fill="#3F3D56"/>
<path d="M306.789 103.411H174.413C173.763 103.411 173.14 103.152 172.68 102.693C172.221 102.233 171.962 101.61 171.961 100.96V42.8697C171.962 42.2199 172.221 41.5968 172.68 41.1373C173.14 40.6778 173.763 40.4193 174.413 40.4186H306.789C307.439 40.4193 308.062 40.6778 308.522 41.1373C308.981 41.5968 309.24 42.2199 309.24 42.8697V100.96C309.24 101.61 308.981 102.233 308.522 102.693C308.062 103.152 307.439 103.411 306.789 103.411Z" fill="#2E5077"/>
<path d="M201.371 60.666C200.93 60.666 200.507 60.8413 200.194 61.1534C199.882 61.4655 199.707 61.8888 199.707 62.3301C199.707 62.7715 199.882 63.1947 200.194 63.5068C200.507 63.8189 200.93 63.9942 201.371 63.9942H279.831C280.272 63.9942 280.696 63.8189 281.008 63.5068C281.32 63.1947 281.495 62.7715 281.495 62.3301C281.495 61.8888 281.32 61.4655 281.008 61.1534C280.696 60.8413 280.272 60.666 279.831 60.666H201.371Z" fill="white"/>
<path d="M201.371 70.309C200.93 70.309 200.507 70.4843 200.194 70.7964C199.882 71.1084 199.707 71.5317 199.707 71.9731C199.707 72.4144 199.882 72.8377 200.194 73.1498C200.507 73.4618 200.93 73.6372 201.371 73.6372H279.831C280.272 73.6372 280.696 73.4618 281.008 73.1498C281.32 72.8377 281.495 72.4144 281.495 71.9731C281.495 71.5317 281.32 71.1084 281.008 70.7964C280.696 70.4843 280.272 70.309 279.831 70.309H201.371Z" fill="white"/>
<path d="M201.371 79.8353C200.93 79.8353 200.507 80.0107 200.194 80.3227C199.882 80.6348 199.707 81.0581 199.707 81.4994C199.707 81.9408 199.882 82.364 200.194 82.6761C200.507 82.9882 200.93 83.1635 201.371 83.1635H235.133C235.574 83.1635 235.997 82.9882 236.309 82.6761C236.621 82.364 236.797 81.9408 236.797 81.4994C236.797 81.0581 236.621 80.6348 236.309 80.3227C235.997 80.0107 235.574 79.8353 235.133 79.8353H201.371Z" fill="white"/>
<path d="M95.0823 6.01945C93.9701 5.90281 92.9212 6.4947 91.8269 6.7367C89.5768 7.22986 87.2715 6.20771 84.958 6.21644C82.9694 6.3295 81.035 6.90682 79.3097 7.90212C77.9144 8.56149 76.6412 9.45288 75.5442 10.5383C74.441 11.6412 73.7987 13.1225 73.7477 14.6816C73.9006 15.5746 73.8731 16.4892 73.6669 17.3715C73.4337 17.8163 73.1568 18.2369 72.8403 18.6269C72.5541 19.0865 72.3713 19.6028 72.3046 20.1401C72.238 20.6774 72.2892 21.2228 72.4546 21.7384C72.9181 22.7597 73.5451 23.6986 74.3107 24.5183C75.7995 26.428 76.7322 28.7148 78.068 30.7416C78.6509 31.6214 79.3047 32.4521 80.0229 33.2254C80.1404 33.3624 80.2836 33.475 80.4444 33.5569C80.6026 33.6125 80.7701 33.6369 80.9376 33.6286C83.7714 33.7094 86.704 33.7718 89.3132 32.6601C90.1491 32.3703 90.8589 31.8 91.3218 31.0461C91.6981 30.0117 91.7665 28.8905 91.5188 27.818C91.4001 26.6236 91.4273 25.4192 91.5996 24.2313C91.6114 23.8301 91.7756 23.4485 92.0588 23.1641C92.2729 23.0312 92.5181 22.9569 92.77 22.9489C93.0218 22.9408 93.2713 22.9992 93.4934 23.1182C93.9367 23.3516 94.4208 23.4977 94.9193 23.5485C95.8969 23.5485 96.5155 22.4363 96.713 21.4679C96.6052 20.5976 96.7341 19.7143 97.086 18.9111C97.438 18.1079 98 17.4144 98.7128 16.9036C99.3846 16.0511 99.8458 15.0522 100.059 13.9881C100.273 12.924 100.232 11.8245 99.9412 10.7789C99.2969 8.76355 97.3242 6.24353 95.0823 6.01945Z" fill="#2F2E41"/>
<path d="M267.991 248.046H135.615C134.965 248.045 134.342 247.786 133.882 247.327C133.423 246.867 133.164 246.245 133.163 245.595V212.759C133.164 212.109 133.423 211.486 133.882 211.027C134.342 210.567 134.965 210.309 135.615 210.308H267.991C268.64 210.309 269.263 210.567 269.723 211.027C270.182 211.486 270.441 212.109 270.442 212.759V245.594C270.441 246.244 270.182 246.867 269.723 247.327C269.263 247.786 268.64 248.045 267.991 248.046ZM135.615 211.287C135.225 211.287 134.852 211.442 134.577 211.718C134.301 211.993 134.146 212.366 134.145 212.756V245.591C134.146 245.98 134.301 246.354 134.577 246.629C134.852 246.905 135.225 247.06 135.615 247.06H267.991C268.38 247.06 268.753 246.905 269.029 246.629C269.304 246.354 269.459 245.981 269.46 245.591V212.759C269.459 212.37 269.304 211.996 269.029 211.721C268.753 211.446 268.38 211.291 267.991 211.29L135.615 211.287Z" fill="#3F3D56"/>
<path d="M117.979 127.846L113.513 80.5057L100.196 80.9649L110.738 127.713C109.878 128.435 109.259 129.403 108.963 130.486C108.668 131.569 108.71 132.717 109.085 133.775C109.459 134.834 110.148 135.753 111.059 136.409C111.97 137.066 113.059 137.429 114.182 137.449C115.305 137.47 116.407 137.147 117.341 136.524C118.276 135.901 118.997 135.008 119.41 133.964C119.823 132.92 119.907 131.774 119.652 130.681C119.396 129.588 118.813 128.599 117.979 127.846Z" fill="#FFB8B8"/>
<path d="M118.105 81.4241L97.8996 86.016L96.9811 52.9545L108.461 53.4137L118.105 81.4241Z" fill="#3F3D56"/>
<path d="M96.6614 238.558L111.317 238.557H111.318C113.794 238.557 116.17 239.541 117.921 241.292C119.673 243.044 120.657 245.419 120.657 247.896V248.199L96.6619 248.2L96.6614 238.558Z" fill="#2F2E41"/>
<path d="M59.8528 226.954L72.1731 234.891L72.1736 234.891C74.2557 236.233 75.7197 238.346 76.2435 240.767C76.7673 243.188 76.308 245.718 74.9667 247.8L74.8023 248.055L54.6304 235.061L59.8528 226.954Z" fill="#2F2E41"/>
<path d="M339 248.082H0V249H339V248.082Z" fill="#CACACA"/>
</g>
<defs>
<clipPath id="clip0_13_217">
<rect width="339" height="249" fill="white"/>
</clipPath>
</defs>
</svg>
