<svg width="344" height="316" viewBox="0 0 344 316" fill="none" xmlns="http://www.w3.org/2000/svg">
<g clip-path="url(#clip0_13_79)">
<path d="M202.013 81.1237H191.814C191.294 81.1231 190.796 80.8991 190.428 80.501C190.061 80.1029 189.854 79.5631 189.853 79V67.957C189.854 67.394 190.061 66.8542 190.428 66.4561C190.796 66.058 191.294 65.834 191.814 65.8334H202.013C202.533 65.834 203.032 66.058 203.399 66.4561C203.767 66.8542 203.974 67.394 203.974 67.957V79C203.974 79.5631 203.767 80.1029 203.399 80.501C203.032 80.8991 202.533 81.1231 202.013 81.1237ZM191.814 66.6828C191.502 66.6832 191.203 66.8176 190.983 67.0564C190.762 67.2953 190.638 67.6192 190.638 67.957V79C190.638 79.3379 190.762 79.6617 190.983 79.9006C191.203 80.1395 191.502 80.2739 191.814 80.2742H202.013C202.325 80.2739 202.624 80.1395 202.845 79.9006C203.066 79.6617 203.19 79.3379 203.19 79V67.957C203.19 67.6192 203.066 67.2953 202.845 67.0564C202.624 66.8176 202.325 66.6832 202.013 66.6828H191.814Z" fill="#E6E6E6"/>
<path d="M83.1588 15.2903H72.9601C72.4401 15.2897 71.9416 15.0657 71.5739 14.6676C71.2062 14.2695 70.9994 13.7297 70.9988 13.1667V2.12366C70.9994 1.56062 71.2062 1.02084 71.5739 0.622716C71.9416 0.224592 72.4401 0.000644127 72.9601 0H83.1588C83.6788 0.000644127 84.1773 0.224592 84.545 0.622716C84.9127 1.02084 85.1195 1.56062 85.1201 2.12366V13.1667C85.1195 13.7297 84.9127 14.2695 84.545 14.6676C84.1773 15.0657 83.6788 15.2897 83.1588 15.2903ZM72.9601 0.849462C72.6481 0.849831 72.349 0.984195 72.1284 1.22307C71.9078 1.46195 71.7837 1.78583 71.7833 2.12366V13.1667C71.7837 13.5045 71.9078 13.8284 72.1284 14.0672C72.349 14.3061 72.6481 14.4405 72.9601 14.4409H83.1588C83.4708 14.4405 83.7699 14.3061 83.9906 14.0672C84.2112 13.8284 84.3353 13.5045 84.3356 13.1667V2.12366C84.3353 1.78583 84.2112 1.46195 83.9906 1.22307C83.7699 0.984195 83.4708 0.849831 83.1588 0.849462H72.9601Z" fill="#E6E6E6"/>
<path d="M195.737 75.6021H185.538C185.018 75.6014 184.52 75.3775 184.152 74.9794C183.784 74.5813 183.578 74.0415 183.577 73.4784V62.4354C183.578 61.8724 183.784 61.3326 184.152 60.9345C184.52 60.5364 185.018 60.3124 185.538 60.3118H195.737C196.257 60.3124 196.756 60.5364 197.123 60.9345C197.491 61.3326 197.698 61.8724 197.698 62.4354V73.4784C197.698 74.0415 197.491 74.5813 197.123 74.9794C196.756 75.3775 196.257 75.6014 195.737 75.6021ZM185.538 61.1612C185.226 61.1616 184.927 61.296 184.707 61.5348C184.486 61.7737 184.362 62.0976 184.362 62.4354V73.4784C184.362 73.8163 184.486 74.1401 184.707 74.379C184.927 74.6179 185.226 74.7523 185.538 74.7526H195.737C196.049 74.7523 196.348 74.6179 196.569 74.379C196.789 74.1401 196.913 73.8163 196.914 73.4784V62.4354C196.913 62.0976 196.789 61.7737 196.569 61.5348C196.348 61.296 196.049 61.1616 195.737 61.1612H185.538Z" fill="#E6E6E6"/>
<path d="M18.4361 167.769H8.23742C7.71743 167.768 7.21891 167.544 6.85123 167.146C6.48354 166.748 6.27672 166.208 6.27612 165.645V154.602C6.27672 154.039 6.48354 153.499 6.85123 153.101C7.21891 152.703 7.71743 152.479 8.23742 152.479H18.4361C18.9561 152.479 19.4546 152.703 19.8223 153.101C20.19 153.499 20.3968 154.039 20.3974 154.602V165.645C20.3968 166.208 20.19 166.748 19.8223 167.146C19.4546 167.544 18.9561 167.768 18.4361 167.769ZM8.23742 153.328C7.92542 153.328 7.6263 153.463 7.40569 153.702C7.18507 153.94 7.06098 154.264 7.06064 154.602V165.645C7.06098 165.983 7.18507 166.307 7.40569 166.546C7.6263 166.785 7.92542 166.919 8.23742 166.919H18.4361C18.7481 166.919 19.0473 166.785 19.2679 166.546C19.4885 166.307 19.6126 165.983 19.6129 165.645V154.602C19.6126 154.264 19.4885 153.94 19.2679 153.702C19.0473 153.463 18.7481 153.328 18.4361 153.328H8.23742Z" fill="#E6E6E6"/>
<path d="M12.16 162.247H1.96129C1.44131 162.247 0.942791 162.023 0.575106 161.625C0.207421 161.227 0.00059488 160.687 0 160.124V149.081C0.00059488 148.518 0.207421 147.978 0.575106 147.58C0.942791 147.182 1.44131 146.958 1.96129 146.957H12.16C12.68 146.958 13.1785 147.182 13.5462 147.58C13.9139 147.978 14.1207 148.518 14.1213 149.081V160.124C14.1207 160.687 13.9139 161.227 13.5462 161.625C13.1785 162.023 12.68 162.247 12.16 162.247ZM1.96129 147.806C1.6493 147.807 1.35018 147.941 1.12956 148.18C0.908949 148.419 0.784858 148.743 0.784517 149.081V160.124C0.784858 160.462 0.908949 160.785 1.12956 161.024C1.35018 161.263 1.6493 161.398 1.96129 161.398H12.16C12.472 161.398 12.7711 161.263 12.9917 161.024C13.2124 160.785 13.3365 160.462 13.3368 160.124V149.081C13.3365 148.743 13.2124 148.419 12.9917 148.18C12.7711 147.941 12.472 147.807 12.16 147.806H1.96129Z" fill="#E6E6E6"/>
<path d="M36.2562 36.5433H130.64C135.194 36.5433 139.613 38.2211 143.17 41.301C146.727 44.3809 149.211 48.6795 150.213 53.4903L197.903 282.534C198.423 285.032 198.432 287.623 197.93 290.126C197.427 292.628 196.425 294.982 194.994 297.021C193.563 299.059 191.737 300.735 189.644 301.929C187.552 303.123 185.244 303.807 182.882 303.933L85.8547 309.109C80.6592 309.386 75.5481 307.607 71.475 304.104C67.402 300.6 64.6453 295.612 63.7194 290.07L36.6666 128.133L34.654 128.756L29.4777 98.0628L31.5494 97.502L23.9981 52.2997C23.6746 50.3636 23.7496 48.3741 24.2177 46.473C24.6858 44.5719 25.5355 42.806 26.7062 41.3012C27.8769 39.7964 29.3397 38.5898 30.9905 37.7674C32.6412 36.945 34.4392 36.527 36.2562 36.5433Z" fill="#3F3D56"/>
<path d="M118.214 41.4808H129.232C132.396 41.4808 135.464 42.6525 137.929 44.8013C140.393 46.9502 142.104 49.9469 142.779 53.2941L188.555 280.469C188.818 281.777 188.818 283.131 188.554 284.439C188.29 285.747 187.768 286.977 187.025 288.047C186.281 289.117 185.333 290 184.245 290.636C183.158 291.273 181.956 291.648 180.722 291.735L84.0094 298.598C81.2809 298.792 78.5822 297.891 76.4281 296.068C74.274 294.244 72.8155 291.625 72.3307 288.712L33.2698 53.9043C33.017 52.3845 33.0753 50.8232 33.4406 49.3305C33.806 47.8378 34.4694 46.4501 35.3841 45.2653C36.2988 44.0805 37.4425 43.1276 38.7345 42.4737C40.0265 41.8198 41.4353 41.4809 42.8614 41.4809H53.3132C54.3248 41.4809 55.3081 41.8419 56.111 42.5082C56.9139 43.1745 57.4916 44.1088 57.7546 45.1664C57.9868 46.1002 58.4967 46.925 59.2056 47.5132C59.9144 48.1014 60.7825 48.4201 61.6756 48.4201H111.294C113.042 48.4201 114.727 47.7054 116.01 46.4189C117.293 45.1323 118.08 43.3688 118.214 41.4808Z" fill="white"/>
<path d="M40.7949 80.1068H145.715L156.892 134.64L50.6014 136.763L40.7949 80.1068Z" fill="#2E5077"/>
<path d="M140.429 183.379H165.13L165.914 188.5H141.213L140.429 183.379Z" fill="#2E5077"/>
<path d="M160.526 157.259L55.7675 159.661L55.778 160.195L160.536 157.793L160.526 157.259Z" fill="#2F2E41"/>
<path d="M163.73 173.006L56.9995 175.675L57.0109 176.209L163.741 173.54L163.73 173.006Z" fill="#2F2E41"/>
<path d="M150.627 238.17H175.328L176.113 243.29H151.412L150.627 238.17Z" fill="#2E5077"/>
<path d="M170.725 212.05L65.9662 214.452L65.9767 214.985L170.735 212.583L170.725 212.05Z" fill="#2F2E41"/>
<path d="M173.929 227.797L67.1982 230.465L67.2096 230.999L173.94 228.33L173.929 227.797Z" fill="#2F2E41"/>
<path d="M241.459 310.566L236.785 310.566L234.562 291.047L241.46 291.047L241.459 310.566Z" fill="#A0616A"/>
<path d="M242.651 315.472L227.58 315.471V315.265C227.581 313.58 228.199 311.965 229.299 310.774C230.399 309.583 231.89 308.914 233.446 308.914L242.651 308.914L242.651 315.472Z" fill="#2F2E41"/>
<path d="M299.519 307.253L294.97 308.413L288.673 289.965L295.388 288.253L299.519 307.253Z" fill="#A0616A"/>
<path d="M301.718 311.732L287.049 315.472L287.006 315.271C286.649 313.631 286.909 311.906 287.727 310.473C288.546 309.041 289.856 308.019 291.37 307.633L300.33 305.349L301.718 311.732Z" fill="#2F2E41"/>
<path d="M240.504 228.236C240.513 227.219 240.791 203.213 246.868 194.136L246.958 194.002L268.137 197.166L267.663 202.204C268.595 203.185 275.922 211.476 278.038 231.109L300.518 296.481L290.067 297.51L259.131 226.148L242.76 303.718H232.4L240.504 228.236Z" fill="#2F2E41"/>
<path d="M244.387 195.022L246.457 183.253C246.052 182.688 244.256 179.975 244.656 176.796C244.917 174.721 246.06 172.902 248.056 171.387L253.422 157.83L253.494 157.784C253.856 157.553 262.4 152.204 267.058 157.251C267.174 157.349 278.642 167.206 274.037 180.503L268.352 198.973L244.387 195.022Z" fill="#CCCCCC"/>
<path d="M237.184 210.944C237.742 210.875 238.28 210.674 238.759 210.355C239.238 210.037 239.646 209.609 239.956 209.101C240.265 208.593 240.468 208.018 240.55 207.416C240.632 206.815 240.591 206.201 240.43 205.618L251.512 196.973L244.878 194.24L235.372 202.869C234.485 203.226 233.751 203.923 233.307 204.828C232.864 205.733 232.742 206.782 232.966 207.778C233.189 208.773 233.742 209.645 234.519 210.229C235.297 210.812 236.245 211.067 237.184 210.944Z" fill="#A0616A"/>
<path d="M239.221 196.958L256.139 182.526L251.109 163.919C250.872 163.038 250.805 162.113 250.912 161.203C251.02 160.293 251.299 159.416 251.733 158.628C252.134 157.884 252.675 157.24 253.32 156.736C253.964 156.232 254.699 155.88 255.477 155.701C258.373 155.037 261.003 156.793 263.29 160.921L263.307 160.958C263.686 161.96 272.499 185.551 265.77 190.595C259.186 195.53 243.921 202.714 243.768 202.786L243.589 202.87L239.221 196.958Z" fill="#CCCCCC"/>
<path d="M261.706 152.344C267.366 152.344 271.955 147.376 271.955 141.247C271.955 135.118 267.366 130.15 261.706 130.15C256.046 130.15 251.457 135.118 251.457 141.247C251.457 147.376 256.046 152.344 261.706 152.344Z" fill="#A0616A"/>
<path d="M277.773 137.285C282.781 137.285 286.84 132.89 286.84 127.468C286.84 122.046 282.781 117.651 277.773 117.651C272.766 117.651 268.707 122.046 268.707 127.468C268.707 132.89 272.766 137.285 277.773 137.285Z" fill="#2F2E41"/>
<path d="M285.594 135.597C284.421 136.516 283.061 137.117 281.629 137.349C280.197 137.582 278.735 137.44 277.364 136.936C275.993 136.431 274.754 135.578 273.749 134.448C272.745 133.319 272.006 131.945 271.593 130.442C271.749 131.789 272.161 133.086 272.804 134.251C273.447 135.416 274.305 136.425 275.326 137.212C276.347 138 277.507 138.55 278.734 138.828C279.961 139.105 281.228 139.105 282.454 138.825C283.681 138.546 284.841 137.995 285.861 137.206C286.88 136.417 287.738 135.407 288.379 134.241C289.021 133.075 289.432 131.778 289.587 130.431C289.742 129.084 289.637 127.717 289.279 126.416C289.483 128.164 289.248 129.939 288.599 131.554C287.951 133.169 286.913 134.566 285.594 135.597Z" fill="#2F2E41"/>
<path d="M249.812 135.608C251.395 132.54 252.001 131.258 254.042 129.392C255.847 127.742 258.066 127.258 259.857 128.821C261.975 127.83 264.332 127.606 266.578 128.18C268.823 128.755 270.837 130.099 272.321 132.013C273.805 133.926 274.68 136.306 274.815 138.8C274.95 141.295 274.338 143.769 273.07 145.857C271.803 147.945 269.947 149.534 267.779 150.389C265.611 151.244 263.246 151.319 261.036 150.603C258.825 149.886 256.887 148.417 255.509 146.413C254.131 144.409 253.387 141.977 253.387 139.479C253.389 139.04 253.413 138.602 253.46 138.166C251.904 137.929 251.369 135.845 249.812 135.608Z" fill="#2F2E41"/>
<path d="M343.608 316H194.157C194.053 316 193.953 315.955 193.88 315.876C193.806 315.796 193.765 315.688 193.765 315.575C193.765 315.463 193.806 315.355 193.88 315.275C193.953 315.195 194.053 315.151 194.157 315.151H343.608C343.712 315.151 343.812 315.195 343.885 315.275C343.959 315.355 344 315.463 344 315.575C344 315.688 343.959 315.796 343.885 315.876C343.812 315.955 343.712 316 343.608 316Z" fill="#3F3D56"/>
</g>
<defs>
<clipPath id="clip0_13_79">
<rect width="344" height="316" fill="white"/>
</clipPath>
</defs>
</svg>
