<svg width="196" height="284" viewBox="0 0 196 284" fill="none" xmlns="http://www.w3.org/2000/svg">
<g clip-path="url(#clip0_13_26)">
<path d="M128.52 111.227L124.955 75.3282L81.5857 79.8868V110.657L128.52 111.227Z" fill="#FFB6B6"/>
<path d="M144.856 257.383V284L143.92 283.593H30.7903L34.057 264.238L34.6079 260.974L35.0419 258.416L55.6463 258.224L55.6658 258.22L63.891 258.145L65.9827 258.126L67.616 258.107L92.3159 257.878L125.987 257.56L144.856 257.383Z" fill="#2F2E41"/>
<path d="M80.9916 102.109L127.926 106.098L159.934 137.112L147.828 211.799L144.858 265.931L33.1661 264.222L46.2364 200.972L40.2953 114.93L80.9916 102.109Z" fill="#CDCDCD"/>
<path d="M138.288 281.185L136.411 283.593H88.1131C83.7056 279.399 76.5189 273.684 68.7471 267.843C67.694 267.044 66.6263 266.249 65.5536 265.454C65.2172 265.201 64.8808 264.954 64.5443 264.706L64.5395 264.701C62.7794 263.396 61.0095 262.096 59.2543 260.82C58.05 259.941 56.8506 259.071 55.6658 258.22C55.6609 258.215 55.6561 258.21 55.6463 258.206C55.266 257.93 54.8808 257.654 54.5005 257.383C47.5186 252.36 41.1608 247.932 37.114 245.121H37.1091C35.9244 244.303 34.9346 243.625 34.1935 243.111C33.1501 242.39 32.5699 241.998 32.5699 241.998L33.7645 241.104C33.7742 241.109 33.7742 241.104 33.7742 241.104L38.6498 237.49L38.6986 237.452L41.858 235.109L61.1997 220.758L60.3952 220.071L76.4311 225.486L94.1053 235.273L109.649 243.878L114.524 246.58C116.875 247.88 119.025 249.461 120.931 251.275C122.306 252.585 123.559 254.016 124.656 255.55C125.09 256.143 125.495 256.756 125.88 257.383L125.987 257.56L130.989 265.72L137.918 280.862L138.288 281.185Z" fill="#77BBC1"/>
<path d="M113.269 283.595H143.919L138.287 281.185L134.722 279.658C127.189 276.433 118.676 278.273 113.269 283.595Z" fill="#FFB6B6"/>
<path d="M90.2002 98.4057C112.184 98.4057 130.005 81.313 130.005 60.2281C130.005 39.1432 112.184 22.0505 90.2002 22.0505C68.2165 22.0505 50.3951 39.1432 50.3951 60.2281C50.3951 81.313 68.2165 98.4057 90.2002 98.4057Z" fill="#FFB6B6"/>
<path d="M48.9099 115.215C48.9099 115.215 30.4926 111.796 22.7692 128.321C15.0458 144.846 10.293 168.778 10.293 168.778L51.8804 170.487L48.9099 115.215Z" fill="#CDCDCD"/>
<path d="M97.6548 283.593H61.0485L53.7107 276.92L53.6912 276.934L53.8131 276.817L65.5536 265.454L66.2996 264.729L69.7125 261.432L69.8003 261.343L71.2093 262.76L73.2717 264.837L73.379 264.944L84.6514 276.279C89.3564 277.589 93.6616 279.964 97.2111 283.196C97.3622 283.327 97.5085 283.462 97.6548 283.593Z" fill="#FFB6B6"/>
<path d="M57.5798 256.464L64.7973 262.837C71.5589 266.521 80.3443 268.5 81.5788 268.766L83.2624 269.361C85.0232 271.401 87.2678 273.006 89.8084 274.043C96.1256 276.721 102.687 275.765 104.463 271.909C106.239 268.053 102.558 262.757 96.2378 260.079C93.7286 258.977 90.9805 258.466 88.2234 258.591L87.9047 258.46L68.3406 249.407" fill="#FFB6B6"/>
<path d="M68.5153 226.329C69.7036 226.329 49.504 247.412 49.504 247.412L67.0114 260.475L73.2682 236.016L68.5153 226.329Z" fill="#77BBC1"/>
<path d="M73.5474 264.837L67.3152 259.304L65.1468 257.384L56.4609 249.674L51.7912 245.013L45.1492 238.392L41.8578 235.11L39.6359 232.899L37.6218 230.888L38.4358 222.785L40.1171 206.089L42.2737 184.647L43.955 167.934L44.157 165.929L36.9921 156.005L10.1762 168.631L3.03304 219.708L1.82104 225.212C0.817171 229.766 2.48054 234.483 6.16055 237.518L30.7896 257.828L33.9503 260.432L38.6437 264.307L54.0667 277.025L73.5474 264.837Z" fill="#CDCDCD"/>
<path d="M32.2749 241.144C49.0088 241.144 62.5743 228.133 62.5743 212.084C62.5743 196.034 49.0088 183.023 32.2749 183.023C15.541 183.023 1.97551 196.034 1.97551 212.084C1.97551 228.133 15.541 241.144 32.2749 241.144Z" fill="#FFB6B6"/>
<path d="M45.2754 216.824L45.7876 207.934L41.6289 201.096C41.6289 201.096 40.4407 177.734 30.935 178.873C21.4293 180.013 0.635616 196.538 0.0415098 202.806C-0.552596 209.074 5.30052 235.97 13.1118 235.855C18.7473 235.772 17.4896 248.596 45.2807 238.776C48.4343 237.661 36.2819 230.727 38.0643 226.738C39.8466 222.749 45.2754 216.824 45.2754 216.824Z" fill="#2F2E41"/>
<path d="M76.3441 131.659C76.3441 131.659 110.219 99.5628 123.617 105.303C137.014 111.043 159.826 138.201 159.826 138.201L126.928 163.752L76.3441 131.659Z" fill="#CDCDCD"/>
<path d="M68.9148 197.703C68.9148 197.703 73.6169 196.828 73.2263 199.348C72.8357 201.869 65.0728 212.098 62.64 210.463C60.2072 208.828 61.553 203.61 62.4976 202.714C63.4423 201.818 68.9148 197.703 68.9148 197.703Z" fill="#77BBC1"/>
<path d="M73.236 198.36C69.0882 199.884 64.0865 207.941 63.3008 209.841L87.2875 231.229C89.0121 232.365 91.2465 232.388 92.9795 231.286C99.5789 227.093 102.432 218.899 103.545 214.388C104.077 212.233 103.011 210.003 100.954 208.962C100.954 208.962 73.236 198.36 73.236 198.36Z" fill="#77BBC1"/>
<path d="M64.8059 202.973C66.4694 202.451 67.4448 200.934 66.9844 199.584C66.5239 198.234 64.8021 197.562 63.1386 198.084C61.475 198.606 60.4997 200.123 60.9601 201.473C61.4205 202.824 63.1423 203.495 64.8059 202.973Z" fill="#77BBC1"/>
<path d="M121.301 198.428L99.5873 203.184C94.8167 202.132 89.8528 202.191 85.1107 203.356C73.2001 206.115 65.0324 214.242 66.8626 221.51C68.6928 228.777 79.8284 232.432 91.7344 229.672C96.5094 228.632 100.955 226.509 104.7 223.483L125.898 219.909L121.299 198.409L121.301 198.428Z" fill="#FFB6B6"/>
<path d="M156.799 136.147L127.914 157.78L154.814 186.919L121.299 198.409L125.898 219.909C128.839 219.488 134.629 218.603 141.728 217.241L154.981 214.412C168.474 211.215 183.14 206.665 191.845 200.687C211.173 187.415 156.799 136.147 156.799 136.147Z" fill="#CDCDCD"/>
<path d="M74.3955 11.4033C82.2678 8.74958 87.2563 -0.129585 94.0463 0.00143482C108.795 0.286454 122.705 10.3903 124.428 11.8767C131.602 18.0653 134.343 24.8907 137.501 32.7536C140.844 41.0798 139.982 54.0703 138.752 63.1533C136.954 76.4345 127.984 80.0271 130.144 88.4445C131.656 94.3363 136.968 96.1519 143.303 101.197C155.283 110.74 159.753 122.945 164.315 135.401C175.186 165.083 168.464 196.955 164.313 197.276C163.436 197.344 162.445 195.433 160.463 191.613C154.392 179.911 156.21 175.927 152.849 172.164C146.836 165.435 136.641 173.285 123.707 167.256C113.518 162.507 109.057 152.607 106.459 146.839C104.965 143.523 98.6652 129.539 103.671 114.687C108.307 100.93 117.256 99.3533 122.003 83.2436C123.003 79.8473 126.576 70.9292 121.007 65.1058C118.184 62.1545 120.853 80.354 116.848 77.7685C107.108 71.4818 107.502 41.4077 98.266 34.135C93.8464 30.6551 87.683 29.7875 83.0535 30.7372C72.0638 32.992 53.5557 45.5346 53.1833 57.1518C52.5838 75.8482 59.8956 83.1719 77.028 95.3032C78.8792 96.614 72.4567 96.5085 69.7211 96.1072C55.7917 94.0634 48.5145 77.8914 47.0142 74.2617C42.6181 63.6254 43.8624 54.3159 44.8248 47.1156C46.0549 37.9117 47.3789 28.006 55.4008 20.5936C60.1501 16.2053 65.3348 14.4576 74.3955 11.4033Z" fill="#2F2E41"/>
</g>
<defs>
<clipPath id="clip0_13_26">
<rect width="196" height="284" fill="white"/>
</clipPath>
</defs>
</svg>
